<svg width="73" height="66" viewBox="0 0 73 66" fill="none" xmlns="http://www.w3.org/2000/svg">
<path d="M7.17773 54.3926V55.418H4.27734V63H3.09375V55.418H0.193359V54.3926H7.17773ZM7.58203 61.3301C7.58203 61.6348 7.69336 61.875 7.91602 62.0508C8.13867 62.2266 8.40234 62.3145 8.70703 62.3145C9.07812 62.3145 9.4375 62.2285 9.78516 62.0566C10.3711 61.7715 10.6641 61.3047 10.6641 60.6562V59.8066C10.5352 59.8887 10.3691 59.957 10.166 60.0117C9.96289 60.0664 9.76367 60.1055 9.56836 60.1289L8.92969 60.2109C8.54688 60.2617 8.25977 60.3418 8.06836 60.4512C7.74414 60.6348 7.58203 60.9277 7.58203 61.3301ZM10.1367 59.1973C10.3789 59.166 10.541 59.0645 10.623 58.8926C10.6699 58.7988 10.6934 58.6641 10.6934 58.4883C10.6934 58.1289 10.5645 57.8691 10.3066 57.709C10.0527 57.5449 9.6875 57.4629 9.21094 57.4629C8.66016 57.4629 8.26953 57.6113 8.03906 57.9082C7.91016 58.0723 7.82617 58.3164 7.78711 58.6406H6.80273C6.82227 57.8672 7.07227 57.3301 7.55273 57.0293C8.03711 56.7246 8.59766 56.5723 9.23438 56.5723C9.97266 56.5723 10.5723 56.7129 11.0332 56.9941C11.4902 57.2754 11.7188 57.7129 11.7188 58.3066V61.9219C11.7188 62.0312 11.7402 62.1191 11.7832 62.1855C11.8301 62.252 11.9258 62.2852 12.0703 62.2852C12.1172 62.2852 12.1699 62.2832 12.2285 62.2793C12.2871 62.2715 12.3496 62.2617 12.416 62.25V63.0293C12.252 63.0762 12.127 63.1055 12.041 63.1172C11.9551 63.1289 11.8379 63.1348 11.6895 63.1348C11.3262 63.1348 11.0625 63.0059 10.8984 62.748C10.8125 62.6113 10.752 62.418 10.7168 62.168C10.502 62.4492 10.1934 62.6934 9.79102 62.9004C9.38867 63.1074 8.94531 63.2109 8.46094 63.2109C7.87891 63.2109 7.40234 63.0352 7.03125 62.6836C6.66406 62.3281 6.48047 61.8848 6.48047 61.3535C6.48047 60.7715 6.66211 60.3203 7.02539 60C7.38867 59.6797 7.86523 59.4824 8.45508 59.4082L10.1367 59.1973ZM13.4824 54.3926H14.5371V63H13.4824V54.3926ZM16.1016 54.3926H17.1152V59.3906L19.8223 56.7246H21.1699L18.7676 59.0742L21.3047 63H19.957L18 59.8359L17.1152 60.6445V63H16.1016V54.3926ZM25.6758 54.9727H26.7422V56.7246H27.7441V57.5859H26.7422V61.6816C26.7422 61.9004 26.8164 62.0469 26.9648 62.1211C27.0469 62.1641 27.1836 62.1855 27.375 62.1855C27.4258 62.1855 27.4805 62.1855 27.5391 62.1855C27.5977 62.1816 27.666 62.1758 27.7441 62.168V63C27.623 63.0352 27.4961 63.0605 27.3633 63.0762C27.2344 63.0918 27.0938 63.0996 26.9414 63.0996C26.4492 63.0996 26.1152 62.9746 25.9395 62.7246C25.7637 62.4707 25.6758 62.1426 25.6758 61.7402V57.5859H24.8262V56.7246H25.6758V54.9727ZM31.2949 62.3203C31.9941 62.3203 32.4727 62.0566 32.7305 61.5293C32.9922 60.998 33.123 60.4082 33.123 59.7598C33.123 59.1738 33.0293 58.6973 32.8418 58.3301C32.5449 57.752 32.0332 57.4629 31.3066 57.4629C30.6621 57.4629 30.1934 57.709 29.9004 58.2012C29.6074 58.6934 29.4609 59.2871 29.4609 59.9824C29.4609 60.6504 29.6074 61.207 29.9004 61.6523C30.1934 62.0977 30.6582 62.3203 31.2949 62.3203ZM31.3359 56.543C32.1445 56.543 32.8281 56.8125 33.3867 57.3516C33.9453 57.8906 34.2246 58.6836 34.2246 59.7305C34.2246 60.7422 33.9785 61.5781 33.4863 62.2383C32.9941 62.8984 32.2305 63.2285 31.1953 63.2285C30.332 63.2285 29.6465 62.9375 29.1387 62.3555C28.6309 61.7695 28.377 60.9844 28.377 60C28.377 58.9453 28.6445 58.1055 29.1797 57.4805C29.7148 56.8555 30.4336 56.543 31.3359 56.543ZM39.8789 56.7246V60.8906C39.8789 61.2109 39.9297 61.4727 40.0312 61.6758C40.2188 62.0508 40.5684 62.2383 41.0801 62.2383C41.8145 62.2383 42.3145 61.9102 42.5801 61.2539C42.7246 60.9023 42.7969 60.4199 42.7969 59.8066V56.7246H43.8516V63H42.8555L42.8672 62.0742C42.7305 62.3125 42.5605 62.5137 42.3574 62.6777C41.9551 63.0059 41.4668 63.1699 40.8926 63.1699C39.998 63.1699 39.3887 62.8711 39.0645 62.2734C38.8887 61.9531 38.8008 61.5254 38.8008 60.9902V56.7246H39.8789ZM45.5039 56.7246H46.5059V57.6152C46.8027 57.248 47.1172 56.9844 47.4492 56.8242C47.7812 56.6641 48.1504 56.584 48.5566 56.584C49.4473 56.584 50.0488 56.8945 50.3613 57.5156C50.5332 57.8555 50.6191 58.3418 50.6191 58.9746V63H49.5469V59.0449C49.5469 58.6621 49.4902 58.3535 49.377 58.1191C49.1895 57.7285 48.8496 57.5332 48.3574 57.5332C48.1074 57.5332 47.9023 57.5586 47.7422 57.6094C47.4531 57.6953 47.1992 57.8672 46.9805 58.125C46.8047 58.332 46.6895 58.5469 46.6348 58.7695C46.584 58.9883 46.5586 59.3027 46.5586 59.7129V63H45.5039V56.7246ZM52.2129 54.3926H53.2676V63H52.2129V54.3926ZM57.3457 62.3203C58.0449 62.3203 58.5234 62.0566 58.7812 61.5293C59.043 60.998 59.1738 60.4082 59.1738 59.7598C59.1738 59.1738 59.0801 58.6973 58.8926 58.3301C58.5957 57.752 58.084 57.4629 57.3574 57.4629C56.7129 57.4629 56.2441 57.709 55.9512 58.2012C55.6582 58.6934 55.5117 59.2871 55.5117 59.9824C55.5117 60.6504 55.6582 61.207 55.9512 61.6523C56.2441 62.0977 56.709 62.3203 57.3457 62.3203ZM57.3867 56.543C58.1953 56.543 58.8789 56.8125 59.4375 57.3516C59.9961 57.8906 60.2754 58.6836 60.2754 59.7305C60.2754 60.7422 60.0293 61.5781 59.5371 62.2383C59.0449 62.8984 58.2812 63.2285 57.2461 63.2285C56.3828 63.2285 55.6973 62.9375 55.1895 62.3555C54.6816 61.7695 54.4277 60.9844 54.4277 60C54.4277 58.9453 54.6953 58.1055 55.2305 57.4805C55.7656 56.8555 56.4844 56.543 57.3867 56.543ZM63.9551 56.543C64.6621 56.543 65.2363 56.7148 65.6777 57.0586C66.123 57.4023 66.3906 57.9941 66.4805 58.834H65.4551C65.3926 58.4473 65.25 58.127 65.0273 57.873C64.8047 57.6152 64.4473 57.4863 63.9551 57.4863C63.2832 57.4863 62.8027 57.8145 62.5137 58.4707C62.3262 58.8965 62.2324 59.4219 62.2324 60.0469C62.2324 60.6758 62.3652 61.2051 62.6309 61.6348C62.8965 62.0645 63.3145 62.2793 63.8848 62.2793C64.3223 62.2793 64.668 62.1465 64.9219 61.8809C65.1797 61.6113 65.3574 61.2441 65.4551 60.7793H66.4805C66.3633 61.6113 66.0703 62.2207 65.6016 62.6074C65.1328 62.9902 64.5332 63.1816 63.8027 63.1816C62.9824 63.1816 62.3281 62.8828 61.8398 62.2852C61.3516 61.6836 61.1074 60.9336 61.1074 60.0352C61.1074 58.9336 61.375 58.0762 61.9102 57.4629C62.4453 56.8496 63.127 56.543 63.9551 56.543ZM67.5117 54.3926H68.5254V59.3906L71.2324 56.7246H72.5801L70.1777 59.0742L72.7148 63H71.3672L69.4102 59.8359L68.5254 60.6445V63H67.5117V54.3926Z" fill="white"/>
<path d="M57.4244 31.9757V31.9521L47.0736 27.5375C46.1513 27.9693 45.3274 28.5858 44.6528 29.3489C43.9783 30.1119 43.4674 31.0052 43.1519 31.9735C39.0512 30.7659 35.3182 28.5506 32.2936 25.5298C29.269 22.5089 27.0491 18.7786 25.8364 14.6794C26.8052 14.3659 27.7001 13.8585 28.4664 13.1879C29.2328 12.5174 29.8546 11.6978 30.2939 10.7791L25.8578 0.385551C25.8578 0.379867 25.8556 0.374416 25.8516 0.370397C25.8476 0.366378 25.8421 0.364121 25.8364 0.364121C24.7078 -0.000376111 23.5089 -0.0928912 22.3377 0.0941243C21.1665 0.28114 20.0561 0.742388 19.0971 1.44024C18.138 2.13809 17.3576 3.05277 16.8194 4.10967C16.2811 5.16656 16.0004 6.33572 16 7.52177C15.9975 16.4559 19.4841 25.0378 25.7168 31.4387C31.9496 37.8396 40.4356 41.5533 49.3667 41.7885C49.6667 41.8099 49.9881 41.8099 50.2882 41.8099C50.5882 41.8099 50.9096 41.8099 51.2097 41.7885C53.0317 41.5683 54.7099 40.6876 55.9262 39.3132C57.1426 37.9389 57.8129 36.1662 57.8101 34.3308C57.8159 33.5296 57.6855 32.7332 57.4244 31.9757Z" fill="white"/>
<path d="M39.3482 18.6398H48.6102C48.7637 18.6398 48.9109 18.5788 49.0194 18.4703C49.1279 18.3618 49.1889 18.2146 49.1889 18.0612V11.6922C49.1889 11.5387 49.1279 11.3915 49.0194 11.283C48.9109 11.1745 48.7637 11.1135 48.6102 11.1135H48.5395V9.13555C48.5754 7.93692 48.1347 6.77294 47.3141 5.89852C46.4935 5.02409 45.3598 4.5105 44.1613 4.47021H43.7949C42.5964 4.5105 41.4627 5.02409 40.6421 5.89852C39.8215 6.77294 39.3809 7.93692 39.4167 9.13555V11.1135H39.3482C39.272 11.1133 39.1965 11.128 39.1261 11.157C39.0556 11.1859 38.9916 11.2285 38.9376 11.2823C38.8837 11.336 38.8409 11.3999 38.8116 11.4702C38.7824 11.5406 38.7674 11.616 38.7674 11.6922V18.0612C38.7674 18.1373 38.7824 18.2128 38.8116 18.2831C38.8409 18.3534 38.8837 18.4173 38.9376 18.4711C38.9916 18.5248 39.0556 18.5674 39.1261 18.5964C39.1965 18.6253 39.272 18.6401 39.3482 18.6398ZM41.024 9.13555C40.9884 8.36321 41.2598 7.60816 41.7789 7.03521C42.2981 6.46227 43.0228 6.11797 43.7949 6.07747H44.1613C44.9334 6.11797 45.6582 6.46227 46.1773 7.03521C46.6965 7.60816 46.9679 8.36321 46.9323 9.13555V11.1135H41.024V9.13555Z" fill="white"/>
</svg>
