<svg width="24" height="24" viewBox="0 0 24 24" fill="none" xmlns="http://www.w3.org/2000/svg">
<g clip-path="url(#clip0_7_244)">
<path d="M23.61 8.40501C23.49 7.92501 23.29 7.47501 23.03 7.07001C22.86 6.81001 22.66 6.56501 22.435 6.34001C22.335 6.24001 22.23 6.14001 22.12 6.06001C21.24 5.33001 20.105 4.97001 18.95 5.04501C19.025 3.89501 18.665 2.75501 17.94 1.88001C17.85 1.77001 17.755 1.66501 17.65 1.56001C17.43 1.34001 17.185 1.14001 16.925 0.975005C16.52 0.710005 16.07 0.515005 15.59 0.390005C14.035 -0.00499469 12.355 0.460005 11.205 1.61001C8.12 4.69501 9.775 13.565 9.85 13.94L9.885 14.115L10.06 14.145C10.255 14.18 12.76 14.635 15.545 14.635C18.115 14.635 20.93 14.25 22.385 12.79C23.54 11.64 24.005 9.96001 23.61 8.40501Z" fill="white"/>
<path d="M18.635 19.85L15.09 17.045C14.829 16.8372 14.5005 16.7331 14.1674 16.7524C13.8344 16.7718 13.5202 16.9134 13.285 17.15L12.66 17.775C12.25 18.185 11.54 18.26 10.655 17.985C9.71498 17.695 8.70998 17.05 7.82998 16.17C6.94998 15.29 6.30498 14.285 6.01498 13.345C5.73998 12.46 5.81498 11.745 6.22498 11.34L6.84998 10.715C7.08662 10.4798 7.22819 10.1656 7.24756 9.83258C7.26694 9.49952 7.16276 9.17103 6.95498 8.91001L4.14998 5.37001C4.03111 5.21987 3.88198 5.09643 3.71228 5.00771C3.54258 4.91898 3.35611 4.86695 3.16498 4.85501C2.76998 4.83001 2.39498 4.97501 2.11998 5.25001L1.37998 5.99001C-1.09002 8.46001 0.624984 14.205 5.20998 18.785C8.37498 21.945 12.085 23.745 14.895 23.745C16.16 23.745 17.24 23.38 18.005 22.615L18.745 21.875C19.02 21.6 19.165 21.22 19.14 20.835C19.115 20.45 18.935 20.09 18.635 19.85Z" fill="white"/>
</g>
<defs>
<clipPath id="clip0_7_244">
<rect width="24" height="24" fill="white"/>
</clipPath>
</defs>
</svg>
